<svg xmlns="http://www.w3.org/2000/svg" viewBox="0 0 540 380" width="540" height="380">
  <defs>
    <linearGradient id="bgDmg" x1="0" y1="0" x2="1" y2="1">
      <stop offset="0%" stop-color="#382a6b"/>
      <stop offset="55%" stop-color="#221947"/>
      <stop offset="100%" stop-color="#150e2e"/>
    </linearGradient>
    <radialGradient id="auroraTop" cx="0.5" cy="0" r="0.7">
      <stop offset="0%" stop-color="#a78bfa" stop-opacity="0.30"/>
      <stop offset="100%" stop-color="#a78bfa" stop-opacity="0"/>
    </radialGradient>
    <radialGradient id="auroraBL" cx="0.05" cy="1" r="0.7">
      <stop offset="0%" stop-color="#7c3aed" stop-opacity="0.22"/>
      <stop offset="100%" stop-color="#7c3aed" stop-opacity="0"/>
    </radialGradient>
    <radialGradient id="centerGlow" cx="0.5" cy="0.55" r="0.45">
      <stop offset="0%" stop-color="#bd93f9" stop-opacity="0.18"/>
      <stop offset="60%" stop-color="#bd93f9" stop-opacity="0.04"/>
      <stop offset="100%" stop-color="#bd93f9" stop-opacity="0"/>
    </radialGradient>
  </defs>

  <!-- Base lighter gradient -->
  <rect width="540" height="380" fill="url(#bgDmg)"/>

  <!-- Aurora top + bottom-left -->
  <rect width="540" height="380" fill="url(#auroraTop)"/>
  <rect width="540" height="380" fill="url(#auroraBL)"/>

  <!-- Soft center glow -->
  <circle cx="270" cy="220" r="220" fill="url(#centerGlow)"/>

  <!-- Drag arrow centered between icons (x=140 and x=400, y=200) -->
  <g opacity="0.40" stroke="#bd93f9" stroke-width="2.5" fill="none" stroke-linecap="round" stroke-linejoin="round">
    <line x1="220" y1="220" x2="320" y2="220"/>
    <polyline points="305,205 320,220 305,235"/>
  </g>

  <!-- Dust particles -->
  <g fill="#bd93f9">
    <circle cx="60"  cy="60"  r="1.6" opacity="0.30"/>
    <circle cx="480" cy="50"  r="1.4" opacity="0.25"/>
    <circle cx="500" cy="320" r="1.6" opacity="0.30"/>
    <circle cx="50"  cy="330" r="1.4" opacity="0.25"/>
    <circle cx="120" cy="100" r="1.0" opacity="0.18"/>
    <circle cx="430" cy="110" r="1.0" opacity="0.18"/>
    <circle cx="100" cy="280" r="1.0" opacity="0.18"/>
    <circle cx="450" cy="270" r="1.0" opacity="0.18"/>
    <circle cx="200" cy="80"  r="0.8" opacity="0.14"/>
    <circle cx="360" cy="320" r="0.8" opacity="0.14"/>
    <circle cx="380" cy="90"  r="0.8" opacity="0.14"/>
    <circle cx="160" cy="310" r="0.8" opacity="0.14"/>
  </g>

  <!-- Title -->
  <text x="270" y="52" text-anchor="middle"
    font-family="-apple-system, SF Pro Display, Helvetica, Arial, sans-serif"
    font-size="22" font-weight="700" fill="#ffffff">
    DevSenses
  </text>
  <text x="270" y="74" text-anchor="middle"
    font-family="-apple-system, SF Pro Text, Helvetica, Arial, sans-serif"
    font-size="11" fill="#cfc8e6" letter-spacing="1">
    Arrasta pra Applications pra instalar
  </text>
</svg>
