<svg xmlns="http://www.w3.org/2000/svg" viewBox="0 0 512 512" fill="none">
  <defs>
    <linearGradient id="bgV5" x1="0" y1="0" x2="0" y2="1">
      <stop offset="0%" stop-color="#a06bf2"/>
      <stop offset="60%" stop-color="#6e3ad9"/>
      <stop offset="100%" stop-color="#2d1670"/>
    </linearGradient>
    <linearGradient id="eyeFillV5" x1="0" y1="0" x2="0" y2="1">
      <stop offset="0%" stop-color="#ffffff"/>
      <stop offset="100%" stop-color="#dcccff"/>
    </linearGradient>
    <filter id="dropV5" x="-20%" y="-20%" width="140%" height="140%">
      <feGaussianBlur stdDeviation="6" result="blur"/>
      <feOffset dx="0" dy="6" result="offset"/>
      <feFlood flood-color="#1a0540" flood-opacity="0.55"/>
      <feComposite in2="offset" operator="in"/>
      <feMerge>
        <feMergeNode/>
        <feMergeNode in="SourceGraphic"/>
      </feMerge>
    </filter>
  </defs>
  <rect width="512" height="512" rx="112" fill="url(#bgV5)"/>
  <!-- subtle inner highlight ring -->
  <rect x="4" y="4" width="504" height="504" rx="108" fill="none" stroke="#fff" stroke-opacity="0.08" stroke-width="2"/>
  <g filter="url(#dropV5)" transform="translate(256 256) scale(2.1) translate(-275 -196.93)" fill="url(#eyeFillV5)" fill-rule="evenodd">
    <path d="M234.30497,152.27665c10.36528,-5.30077 18.87327,-8.07724 28.89937,-9.42982c8.66904,-1.16962 10.64453,-1.08941 12.54167,0.50696l1.6132,1.3573v42.12732l2.40005,2.74325l2.39938,2.74358h28.32581c21.7769,0 27.39197,0.1788 27.74824,-1.10426c0.16205,-0.58294 -0.76106,-1.46722 -1.74713,-2.80787l-1.72035,-2.3381l-19.9695,-0.02043l-19.96883,-0.02043l-6.11296,-6.83317l-6.11229,-6.83268v-27.56755l1.28139,-1.20422c1.50673,-1.4155 3.00207,-1.30697 11.56296,0.83882c20.38703,5.10942 36.65467,15.83203 51.97708,34.25904c7.18475,8.64092 13.29302,17.19511 13.29302,18.61713c0,0.93317 -1.97482,3.96537 -6.24689,9.59182c-14.49907,19.09526 -24.76223,28.24511 -40.14994,35.79349c-7.93576,3.89272 -14.30956,6.13975 -22.54299,7.94715c-4.47565,0.98272 -6.89177,1.15348 -16.51407,1.16755c-11.80103,0.01808 -14.60153,-0.30503 -23.22034,-2.67561c-17.83798,-4.90624 -34.44851,-15.90301 -47.80291,-31.6463c-7.17239,-8.45575 -14.95498,-18.9918 -14.95498,-20.24573c0,-0.71988 1.80712,-3.60744 4.40166,-7.03474c14.99167,-19.80208 26.88498,-30.90848 40.61937,-37.93247zM222.1292,178.12817c12.10244,-11.73383 27.64182,-19.87083 41.86132,-21.9196c1.73006,-0.24955 3.44069,-0.48232 3.80097,-0.51744c0.51496,-0.05032 0.65526,4.54425 0.65526,21.40109v21.46518l1.26498,1.47124l1.26498,1.4709l34.3795,0.26217l34.37917,0.26217l-1.5613,2.35819c-2.15897,3.26023 -9.61962,11.57971 -13.15206,14.66548c-10.84006,9.46928 -25.37765,16.42199 -39.01253,18.65798c-7.00929,1.14914 -20.1416,0.77312 -26.21304,-0.75068c-16.93964,-4.25199 -30.40208,-12.33642 -41.86919,-25.14461c-3.84386,-4.2935 -11.34285,-14.01324 -11.34285,-14.70231c0,-1.59579 9.19603,-12.82393 15.54478,-18.97975zM290.99811,167.42294l-0.00402,-4.90754l-0.00435,-4.90812l1.96611,0.36071c9.04338,1.6582 22.53395,8.71732 30.53802,15.97988l2.88321,2.61598l-26.31115,0.03348zM245.29605,176.45638c3.63255,-5.27974 10.62946,-10.72154 16.3202,-12.69274l1.85026,-0.64116l0.28494,19.84095l-2.08029,2.36355c-2.85877,3.2475 -3.89874,6.61487 -3.59773,11.65002c0.373,6.25225 3.36871,10.95257 8.89706,13.96134c3.91582,2.13118 10.01137,2.47572 13.93589,0.78685c1.49099,-0.6412 2.98299,-1.49401 3.31581,-1.89513c0.8739,-1.0527 22.49544,-1.07781 22.49544,-0.02612c0,1.3296 -3.11892,6.90383 -5.43192,9.70868c-4.67956,5.67467 -11.53617,10.15969 -18.15975,11.87803c-2.62874,0.68204 -4.90591,0.83037 -9.96081,0.64923c-7.25372,-0.26117 -10.9057,-1.28306 -16.62724,-4.65412c-4.04573,-2.38298 -10.44798,-8.87028 -12.87482,-13.04558c-3.34326,-5.75202 -4.30957,-9.68658 -4.31092,-17.55874c-0.00234,-8.90576 1.41029,-13.73566 5.94387,-20.32509z"/>
  </g>
</svg>
